<mxfile host="app.diagrams.net" modified="2023-05-03T03:19:26.725Z" agent="Mozilla/5.0 (Macintosh; Intel Mac OS X 10_15_7) AppleWebKit/537.36 (KHTML, like Gecko) Chrome/112.0.0.0 Safari/537.36" etag="2H6BTKRZniLG-Rm_Zkfk" version="21.2.4" type="github">
  <diagram name="Page-1" id="13e1069c-82ec-6db2-03f1-153e76fe0fe0">
    <mxGraphModel dx="3530" dy="1012" grid="1" gridSize="10" guides="1" tooltips="1" connect="1" arrows="1" fold="1" page="1" pageScale="1" pageWidth="1100" pageHeight="850" background="none" math="0" shadow="0">
      <root>
        <mxCell id="0" />
        <mxCell id="1" parent="0" />
        <mxCell id="7baba1c4bc27f4b0-3" value=":Jenkins instance" style="shape=umlLifeline;perimeter=lifelinePerimeter;whiteSpace=wrap;html=1;container=1;collapsible=0;recursiveResize=0;outlineConnect=0;rounded=1;shadow=0;comic=0;labelBackgroundColor=none;strokeWidth=1;fontFamily=Verdana;fontSize=12;align=center;fillColor=#FAE5C7;strokeColor=#0F8B8D;fontColor=#143642;" parent="1" vertex="1">
          <mxGeometry x="-610" y="185" width="100" height="580" as="geometry" />
        </mxCell>
        <mxCell id="7baba1c4bc27f4b0-4" value=":Jenkins &lt;br&gt;service" style="shape=umlLifeline;perimeter=lifelinePerimeter;whiteSpace=wrap;html=1;container=1;collapsible=0;recursiveResize=0;outlineConnect=0;rounded=1;shadow=0;comic=0;labelBackgroundColor=none;strokeWidth=1;fontFamily=Verdana;fontSize=12;align=center;fillColor=#FAE5C7;strokeColor=#0F8B8D;fontColor=#143642;" parent="1" vertex="1">
          <mxGeometry x="-470" y="185" width="100" height="580" as="geometry" />
        </mxCell>
        <mxCell id="7baba1c4bc27f4b0-10" value="" style="html=1;points=[];perimeter=orthogonalPerimeter;rounded=1;shadow=0;comic=0;labelBackgroundColor=none;strokeWidth=1;fontFamily=Verdana;fontSize=12;align=center;fillColor=#FAE5C7;strokeColor=#0F8B8D;fontColor=#143642;" parent="7baba1c4bc27f4b0-4" vertex="1">
          <mxGeometry x="45" y="125" width="10" height="135" as="geometry" />
        </mxCell>
        <mxCell id="davq9KQGrm66WCmQLP24-43" value="" style="html=1;points=[];perimeter=orthogonalPerimeter;rounded=1;shadow=0;comic=0;labelBackgroundColor=none;strokeColor=#0F8B8D;strokeWidth=1;fillColor=#FAE5C7;fontFamily=Verdana;fontSize=12;fontColor=#143642;align=center;" parent="7baba1c4bc27f4b0-4" vertex="1">
          <mxGeometry x="51" y="145" width="10" height="35" as="geometry" />
        </mxCell>
        <mxCell id="7baba1c4bc27f4b0-6" value=":Spotfleet runtime" style="shape=umlLifeline;perimeter=lifelinePerimeter;whiteSpace=wrap;html=1;container=1;collapsible=0;recursiveResize=0;outlineConnect=0;rounded=1;shadow=0;comic=0;labelBackgroundColor=none;strokeWidth=1;fontFamily=Verdana;fontSize=12;align=center;fillColor=#FAE5C7;strokeColor=#0F8B8D;fontColor=#143642;" parent="1" vertex="1">
          <mxGeometry x="-320" y="190" width="100" height="580" as="geometry" />
        </mxCell>
        <mxCell id="davq9KQGrm66WCmQLP24-25" value="" style="html=1;points=[];perimeter=orthogonalPerimeter;rounded=1;shadow=0;comic=0;labelBackgroundColor=none;strokeColor=#0F8B8D;strokeWidth=1;fillColor=#FAE5C7;fontFamily=Verdana;fontSize=12;fontColor=#143642;align=center;" parent="7baba1c4bc27f4b0-6" vertex="1">
          <mxGeometry x="45" y="120" width="10" height="20" as="geometry" />
        </mxCell>
        <mxCell id="hMHOnSNUgfsskNDb60oq-2" value="" style="html=1;points=[];perimeter=orthogonalPerimeter;rounded=1;shadow=0;comic=0;labelBackgroundColor=none;strokeColor=#0F8B8D;strokeWidth=1;fillColor=#FAE5C7;fontFamily=Verdana;fontSize=12;fontColor=#143642;align=center;" vertex="1" parent="7baba1c4bc27f4b0-6">
          <mxGeometry x="45" y="157.5" width="10" height="20" as="geometry" />
        </mxCell>
        <mxCell id="rLHE1SMrp8Qe7MBTJXoM-4" style="edgeStyle=orthogonalEdgeStyle;rounded=0;orthogonalLoop=1;jettySize=auto;html=1;entryX=-0.217;entryY=0.546;entryDx=0;entryDy=0;entryPerimeter=0;fillColor=#f8cecc;strokeColor=#CC0000;" parent="7baba1c4bc27f4b0-6" edge="1">
          <mxGeometry relative="1" as="geometry">
            <mxPoint x="-95" y="210.07999999999998" as="sourcePoint" />
            <mxPoint x="182.82999999999993" y="210.00000000000006" as="targetPoint" />
            <Array as="points">
              <mxPoint x="-20" y="210.07999999999998" />
              <mxPoint x="-20" y="210.07999999999998" />
            </Array>
          </mxGeometry>
        </mxCell>
        <mxCell id="7baba1c4bc27f4b0-7" value=":K8s &lt;br&gt;pod runtime" style="shape=umlLifeline;perimeter=lifelinePerimeter;whiteSpace=wrap;html=1;container=1;collapsible=0;recursiveResize=0;outlineConnect=0;rounded=1;shadow=0;comic=0;labelBackgroundColor=none;strokeWidth=1;fontFamily=Verdana;fontSize=12;align=center;fillColor=#FAE5C7;strokeColor=#0F8B8D;fontColor=#143642;" parent="1" vertex="1">
          <mxGeometry x="-180" y="190" width="100" height="580" as="geometry" />
        </mxCell>
        <mxCell id="7baba1c4bc27f4b0-25" value="" style="html=1;points=[];perimeter=orthogonalPerimeter;rounded=1;shadow=0;comic=0;labelBackgroundColor=none;strokeColor=#0F8B8D;strokeWidth=1;fillColor=#FAE5C7;fontFamily=Verdana;fontSize=12;fontColor=#143642;align=center;" parent="7baba1c4bc27f4b0-7" vertex="1">
          <mxGeometry x="45" y="185" width="10" height="55" as="geometry" />
        </mxCell>
        <mxCell id="7baba1c4bc27f4b0-8" value=":Frontend" style="shape=umlLifeline;perimeter=lifelinePerimeter;whiteSpace=wrap;html=1;container=1;collapsible=0;recursiveResize=0;outlineConnect=0;rounded=1;shadow=0;comic=0;labelBackgroundColor=none;strokeWidth=1;fontFamily=Verdana;fontSize=12;align=center;fillColor=#FAE5C7;strokeColor=#0F8B8D;fontColor=#143642;" parent="1" vertex="1">
          <mxGeometry x="-910" y="185" width="100" height="580" as="geometry" />
        </mxCell>
        <mxCell id="7baba1c4bc27f4b0-9" value="" style="html=1;points=[];perimeter=orthogonalPerimeter;rounded=1;shadow=0;comic=0;labelBackgroundColor=none;strokeWidth=1;fontFamily=Verdana;fontSize=12;align=center;fillColor=#FAE5C7;strokeColor=#0F8B8D;fontColor=#143642;" parent="7baba1c4bc27f4b0-8" vertex="1">
          <mxGeometry x="45" y="100" width="10" height="440" as="geometry" />
        </mxCell>
        <mxCell id="davq9KQGrm66WCmQLP24-33" value="done" style="html=1;verticalAlign=bottom;endArrow=open;dashed=1;endSize=8;exitX=-0.24;exitY=0.722;labelBackgroundColor=none;fontFamily=Verdana;fontSize=12;strokeColor=#A8201A;fontColor=default;exitDx=0;exitDy=0;exitPerimeter=0;entryX=1.06;entryY=0.914;entryDx=0;entryDy=0;entryPerimeter=0;" parent="7baba1c4bc27f4b0-8" target="davq9KQGrm66WCmQLP24-5" edge="1">
          <mxGeometry x="-0.0283" y="-5" relative="1" as="geometry">
            <mxPoint x="-84.00000000000009" y="510.89999999999986" as="targetPoint" />
            <mxPoint x="44.999999999999915" y="510" as="sourcePoint" />
            <mxPoint as="offset" />
          </mxGeometry>
        </mxCell>
        <mxCell id="davq9KQGrm66WCmQLP24-39" value="" style="shape=image;html=1;verticalAlign=top;verticalLabelPosition=bottom;labelBackgroundColor=#ffffff;imageAspect=0;aspect=fixed;image=https://cdn0.iconfinder.com/data/icons/business-startup-10/50/8-128.png" parent="7baba1c4bc27f4b0-8" vertex="1">
          <mxGeometry x="55" y="62" width="38" height="38" as="geometry" />
        </mxCell>
        <mxCell id="7baba1c4bc27f4b0-11" value="playbook" style="html=1;verticalAlign=bottom;endArrow=block;entryX=0;entryY=0;labelBackgroundColor=none;fontFamily=Verdana;fontSize=12;edgeStyle=elbowEdgeStyle;elbow=vertical;strokeColor=#A8201A;fontColor=default;" parent="1" source="7baba1c4bc27f4b0-9" target="7baba1c4bc27f4b0-10" edge="1">
          <mxGeometry relative="1" as="geometry">
            <mxPoint x="-790" y="295" as="sourcePoint" />
            <mxPoint as="offset" />
          </mxGeometry>
        </mxCell>
        <mxCell id="davq9KQGrm66WCmQLP24-1" value="" style="shape=umlActor;verticalLabelPosition=bottom;verticalAlign=top;html=1;outlineConnect=0;strokeColor=#0F8B8D;fontColor=#143642;fillColor=#FAE5C7;" parent="1" vertex="1">
          <mxGeometry x="-1040" y="180" width="30" height="60" as="geometry" />
        </mxCell>
        <mxCell id="davq9KQGrm66WCmQLP24-4" value="" style="endArrow=none;dashed=1;html=1;dashPattern=1 3;strokeWidth=2;rounded=0;strokeColor=#006EAF;fontColor=#143642;fillColor=#1ba1e2;" parent="1" source="davq9KQGrm66WCmQLP24-5" target="davq9KQGrm66WCmQLP24-1" edge="1">
          <mxGeometry width="50" height="50" relative="1" as="geometry">
            <mxPoint x="-1025" y="765" as="sourcePoint" />
            <mxPoint x="-1020" y="355" as="targetPoint" />
          </mxGeometry>
        </mxCell>
        <mxCell id="davq9KQGrm66WCmQLP24-6" value="" style="endArrow=none;dashed=1;html=1;dashPattern=1 3;strokeWidth=2;rounded=0;strokeColor=#006EAF;fontColor=#143642;fillColor=#1ba1e2;" parent="1" target="davq9KQGrm66WCmQLP24-5" edge="1">
          <mxGeometry width="50" height="50" relative="1" as="geometry">
            <mxPoint x="-1025" y="765" as="sourcePoint" />
            <mxPoint x="-1025" y="235" as="targetPoint" />
          </mxGeometry>
        </mxCell>
        <mxCell id="davq9KQGrm66WCmQLP24-8" style="edgeStyle=orthogonalEdgeStyle;rounded=0;orthogonalLoop=1;jettySize=auto;html=1;strokeColor=#A8201A;fontColor=#143642;fillColor=#FAE5C7;exitX=1.26;exitY=0.048;exitDx=0;exitDy=0;exitPerimeter=0;entryX=-0.04;entryY=0.005;entryDx=0;entryDy=0;entryPerimeter=0;" parent="1" source="davq9KQGrm66WCmQLP24-5" target="7baba1c4bc27f4b0-9" edge="1">
          <mxGeometry relative="1" as="geometry">
            <mxPoint x="-920" y="375" as="targetPoint" />
          </mxGeometry>
        </mxCell>
        <mxCell id="davq9KQGrm66WCmQLP24-5" value="" style="html=1;points=[];perimeter=orthogonalPerimeter;rounded=1;shadow=0;comic=0;labelBackgroundColor=none;strokeWidth=1;fontFamily=Verdana;fontSize=12;align=center;fillColor=#FAE5C7;strokeColor=#0F8B8D;fontColor=#143642;" parent="1" vertex="1">
          <mxGeometry x="-1030" y="265" width="10" height="470" as="geometry" />
        </mxCell>
        <mxCell id="davq9KQGrm66WCmQLP24-9" value="Parameters" style="text;html=1;align=center;verticalAlign=middle;resizable=0;points=[];autosize=1;strokeColor=none;fillColor=none;fontColor=#143642;" parent="1" vertex="1">
          <mxGeometry x="-1005" y="263" width="90" height="30" as="geometry" />
        </mxCell>
        <mxCell id="rLHE1SMrp8Qe7MBTJXoM-6" value="" style="html=1;verticalAlign=bottom;endArrow=open;dashed=1;endSize=8;labelBackgroundColor=none;fontFamily=Verdana;fontSize=12;edgeStyle=elbowEdgeStyle;elbow=vertical;strokeColor=#A8201A;fontColor=default;exitX=-0.04;exitY=0.897;exitDx=0;exitDy=0;exitPerimeter=0;" parent="1" edge="1">
          <mxGeometry x="-0.0945" y="-14" relative="1" as="geometry">
            <mxPoint x="-860.5" y="434.5" as="targetPoint" />
            <Array as="points">
              <mxPoint x="-505" y="434.5" />
            </Array>
            <mxPoint x="-421.4000000000001" y="434.85699999999997" as="sourcePoint" />
            <mxPoint as="offset" />
          </mxGeometry>
        </mxCell>
        <mxCell id="rLHE1SMrp8Qe7MBTJXoM-7" value="replace" style="html=1;verticalAlign=bottom;endArrow=block;labelBackgroundColor=none;fontFamily=Verdana;fontSize=12;elbow=vertical;edgeStyle=orthogonalEdgeStyle;curved=1;entryX=1;entryY=0.286;entryPerimeter=0;exitX=1.038;exitY=0.345;exitPerimeter=0;strokeColor=#A8201A;fontColor=default;" parent="1" edge="1">
          <mxGeometry relative="1" as="geometry">
            <mxPoint x="-409.99666666666644" y="320.03" as="sourcePoint" />
            <mxPoint x="-404.99666666666644" y="358.36333333333334" as="targetPoint" />
            <Array as="points">
              <mxPoint x="-355.3299999999999" y="320.03" />
              <mxPoint x="-355.3299999999999" y="358.03" />
            </Array>
          </mxGeometry>
        </mxCell>
        <mxCell id="hMHOnSNUgfsskNDb60oq-3" style="edgeStyle=orthogonalEdgeStyle;rounded=0;orthogonalLoop=1;jettySize=auto;html=1;entryX=-0.017;entryY=0.446;entryDx=0;entryDy=0;entryPerimeter=0;strokeColor=#CC0000;" edge="1" parent="1" source="7baba1c4bc27f4b0-10" target="davq9KQGrm66WCmQLP24-25">
          <mxGeometry relative="1" as="geometry">
            <Array as="points">
              <mxPoint x="-380" y="319" />
              <mxPoint x="-380" y="319" />
            </Array>
          </mxGeometry>
        </mxCell>
        <mxCell id="hMHOnSNUgfsskNDb60oq-4" style="edgeStyle=orthogonalEdgeStyle;rounded=0;orthogonalLoop=1;jettySize=auto;html=1;entryX=-0.117;entryY=0.621;entryDx=0;entryDy=0;entryPerimeter=0;strokeColor=#CC0000;" edge="1" parent="1" source="davq9KQGrm66WCmQLP24-43" target="hMHOnSNUgfsskNDb60oq-2">
          <mxGeometry relative="1" as="geometry">
            <Array as="points">
              <mxPoint x="-380" y="360" />
              <mxPoint x="-380" y="360" />
            </Array>
          </mxGeometry>
        </mxCell>
        <mxCell id="hMHOnSNUgfsskNDb60oq-5" value="new spot request" style="text;html=1;align=center;verticalAlign=middle;resizable=0;points=[];autosize=1;strokeColor=none;fillColor=none;" vertex="1" parent="1">
          <mxGeometry x="-405" y="288" width="110" height="30" as="geometry" />
        </mxCell>
        <mxCell id="hMHOnSNUgfsskNDb60oq-6" value="delete spot request" style="text;html=1;align=center;verticalAlign=middle;resizable=0;points=[];autosize=1;strokeColor=none;fillColor=none;" vertex="1" parent="1">
          <mxGeometry x="-395" y="338" width="130" height="30" as="geometry" />
        </mxCell>
        <mxCell id="hMHOnSNUgfsskNDb60oq-7" value="resource quota / namespace" style="text;html=1;align=center;verticalAlign=middle;resizable=0;points=[];autosize=1;strokeColor=none;fillColor=none;" vertex="1" parent="1">
          <mxGeometry x="-340" y="378" width="180" height="30" as="geometry" />
        </mxCell>
      </root>
    </mxGraphModel>
  </diagram>
</mxfile>
